<svg xmlns="http://www.w3.org/2000/svg" shape-rendering="geometricPrecision" text-rendering="geometricPrecision" image-rendering="optimizeQuality" fill-rule="evenodd" clip-rule="evenodd" viewBox="0 0 512 512"><path fill-rule="nonzero" d="M255.998 0c70.69 0 134.694 28.657 181.017 74.981C483.342 121.308 512 185.309 512 255.998c0 70.69-28.655 134.694-74.985 181.017C390.692 483.345 326.688 512 255.998 512c-70.689 0-134.69-28.658-181.017-74.985C28.657 390.692 0 326.688 0 255.998c0-70.689 28.657-134.687 74.981-181.017C121.311 28.657 185.309 0 255.998 0zm-31.652 349.762h-63.307l48.606-187.522h92.713l48.606 187.522h-63.311l-6.898-29.703h-49.507l-6.902 29.703zm30.003-129.915l-12.301 52.507h27.603l-12.001-52.507h-3.301zm155.474-117.674C370.461 62.812 316.071 38.46 255.998 38.46c-60.072 0-114.46 24.352-153.825 63.713-39.361 39.365-63.713 93.753-63.713 153.825 0 60.073 24.352 114.463 63.713 153.825 39.365 39.365 93.753 63.716 153.825 63.716 60.073 0 114.463-24.351 153.825-63.716 39.365-39.362 63.716-93.752 63.716-153.825 0-60.072-24.351-114.46-63.716-153.825z"/></svg>