<?xml version="1.0" encoding="UTF-8" standalone="no"?>
<!-- Created with Inkscape (http://www.inkscape.org/) -->
<svg xmlns:inkscape="http://www.inkscape.org/namespaces/inkscape" xmlns:sodipodi="http://sodipodi.sourceforge.net/DTD/sodipodi-0.dtd" xmlns="http://www.w3.org/2000/svg" xmlns:svg="http://www.w3.org/2000/svg" width="103mm" height="103mm" viewBox="0 0 103 103" version="1.1" id="svg844" inkscape:version="1.1.2 (b8e25be833, 2022-02-05)" sodipodi:docname="logo.svg">
  
  <defs id="defs841"/>
  <g inkscape:label="Слой 1" inkscape:groupmode="layer" id="layer1">
    <path fill-rule="evenodd" clip-rule="evenodd" d="m 68.559138,37.83657 c -27.910101,0 -50.535442,22.625575 -50.535442,50.535415 0,0.23363 0.0016,0.46673 0.0047,0.69982 8.960617,8.09228 20.834402,13.019625 33.859311,13.019625 20.908168,0 38.850884,-12.697355 46.537292,-30.802005 2.574131,-6.06266 3.998111,-12.73175 3.998111,-19.73342 0,-0.23362 -0.002,-0.46672 -0.005,-0.69955 -0.37439,-27.5875 -22.854439,-49.8358364 -50.530643,-49.8358364 -7.904427,0 -15.384992,1.814751 -22.047729,5.050288 C 15.631481,12.970737 5.1420217,26.331957 2.1914017,42.334225 c -0.495383,2.68658 -0.778267,5.44777 -0.830577,8.26505 0.07611,5.3e-4 0.15229,7.9e-4 0.228531,7.9e-4 17.2427893,0 31.2208593,-13.977933 31.2208593,-31.220723 0,-1.753102 -0.144463,-3.472444 -0.422275,-5.146807 5.125773,-1.75051 10.622491,-2.700364 16.340931,-2.700364 22.464977,0 41.50598,14.658499 48.080608,34.932194 C 88.744981,41.017125 79.023391,37.83657 68.558862,37.83657 Z M 59.83318,90.652425 c 14.520601,0 26.726091,-9.91287 30.217801,-23.34048 -3.54383,-1.397 -7.4049,-2.16455 -11.44508,-2.16455 -14.520602,0 -26.726096,9.91287 -30.217802,23.34074 3.543829,1.397 7.404894,2.16429 11.445081,2.16429 z" fill="#3d96cb" id="path2" style="stroke-width:0.264583"/>
  </g>
</svg>
