<?xml version="1.0" encoding="UTF-8" standalone="no"?>
<!-- Created with Inkscape (http://www.inkscape.org/) -->

<svg
   width="256"
   height="256"
   viewBox="0 0 67.733334 67.733334"
   version="1.1"
   id="svg5"
   xmlns="http://www.w3.org/2000/svg"
   xmlns:svg="http://www.w3.org/2000/svg">
  <defs
     id="defs2" />
  <g
     id="layer1"
     transform="matrix(1.5461404,0,0,1.5461404,-146.90027,-107.252)">
    <ellipse
       style="fill:#E28743;stroke-width:0.282995"
       id="path200-3"
       cx="107.34358"
       cy="94.68174"
       rx="5.2884688"
       ry="3.551332" />
    <ellipse
       style="fill:#E28743;stroke-width:0.282995"
       id="path200-3-2"
       cx="127.66699"
       cy="100.39067"
       rx="5.2884688"
       ry="3.551332" />
    <ellipse
       style="fill:#E28743;stroke-width:0.185347"
       id="path200-3-2-9"
       cx="123.62947"
       cy="87.890434"
       rx="3.4147046"
       ry="2.3592961" />
    <ellipse
       style="fill:#E28743;stroke-width:0.282995"
       id="path200-3-1"
       cx="107.29266"
       cy="104.31863"
       rx="5.2884688"
       ry="3.551332" />
    <path
       style="fill:none;stroke:#E28743;stroke-width:1.665;stroke-linecap:round;stroke-linejoin:miter;stroke-dasharray:none;stroke-opacity:1"
       d="m 117.77292,73.508367 c 21.58089,18.199245 13.33989,16.256931 20.10638,17.437659"
       id="path449-6" />
    <path
       style="fill:none;stroke:#E28743;stroke-width:1.665;stroke-linecap:round;stroke-linejoin:miter;stroke-dasharray:none;stroke-opacity:1"
       d="M 115.94013,73.536871 C 94.359235,91.736116 102.60024,89.793802 95.833745,90.97453"
       id="path449-6-0" />
    <path
       style="fill:none;stroke:#E28743;stroke-width:1.88286;stroke-linecap:butt;stroke-linejoin:miter;stroke-dasharray:none;stroke-opacity:1"
       d="m 116.82977,72.693478 c 0.41585,25.907178 2.78679,32.034102 -5.41433,31.255492"
       id="path2117" />
    <path
       style="fill:none;stroke:#E28743;stroke-width:2;stroke-linecap:butt;stroke-linejoin:miter;stroke-dasharray:none;stroke-opacity:1"
       d="m 117.23758,86.63291 c -0.0709,2.72122 1.29006,7.597062 -6.6328,7.4505"
       id="path2117-9" />
    <path
       style="fill:none;stroke:#E28743;stroke-width:2;stroke-linecap:butt;stroke-linejoin:miter;stroke-dasharray:none;stroke-opacity:1"
       d="m 117.21329,86.026894 c 0.71219,7.829078 -1.78284,13.843095 6.55498,14.123436"
       id="path2117-2" />
    <path
       style="fill:none;stroke:#E28743;stroke-width:1;stroke-linecap:butt;stroke-linejoin:miter;stroke-dasharray:none;stroke-opacity:1"
       d="m 116.81983,73.688318 c 0.71219,7.829078 -1.78284,13.843095 6.55498,14.123435"
       id="path2117-2-3" />
  </g>
</svg>
